<?xml version="1.0" standalone="no"?><!DOCTYPE svg PUBLIC "-//W3C//DTD SVG 1.1//EN" "http://www.w3.org/Graphics/SVG/1.1/DTD/svg11.dtd"><svg t="1611554504662" class="icon" viewBox="0 0 1024 1024" version="1.1" xmlns="http://www.w3.org/2000/svg" p-id="2456" width="24" height="24" xmlns:xlink="http://www.w3.org/1999/xlink"><defs><style type="text/css"></style></defs><path d="M789.7 314.6c-0.4-72.2-29-139.8-80.6-190.5-51.7-50.7-120.3-78.7-193.3-78.7-72.8 0-141.3 28.4-192.8 79.8-51.5 51.5-79.8 120-79.8 192.8h1.9c5.4 19.6 30.7 107.1 70 197.8 26 59.8 52.7 108.4 79.5 144.5 35.7 48.1 72.5 74.9 109.5 79.6l1.1 0.1h2c31.7 0 65.3-23.4 102.7-71.6 27.3-35.1 56.9-83.9 88-145 52.5-103.1 92-207.8 92.4-208.8h-0.6zM661.9 505.8C632 564.6 603.7 611.2 578 644.3c-36.8 47.4-59.5 55.6-70.3 56-47.7-7.3-103-78.1-155.9-199.9-38.4-88.4-63.7-176.3-68.5-193.6 2.7-57.9 26.6-111.9 67.9-153.2 43.9-43.9 102.4-68.1 164.5-68.1 62.4 0 121.1 23.9 165.3 67.2 42.6 41.8 66.8 97 68.6 156.2-10.3 26.4-44.5 112.2-87.7 196.9z" fill="#1296db" p-id="2457"></path><path d="M516.6 339.8c-38.5 0-69.8-31.3-69.8-69.8s31.3-69.8 69.8-69.8 69.8 31.3 69.8 69.8-31.3 69.8-69.8 69.8z m0-99.5c-16.4 0-29.8 13.3-29.8 29.8 0 16.4 13.3 29.8 29.8 29.8 16.4 0 29.8-13.3 29.8-29.8 0-16.4-13.4-29.8-29.8-29.8zM517.3 965c-85.9 0-167-19.4-228.3-54.7-30.8-17.7-55.1-38.6-72.3-62-18.7-25.4-28.1-52.7-28.1-81 0-36.5 14.8-71.7 42.7-101.6 26.5-28.5 65-52.2 111.4-68.7l13.4 37.7c-40.3 14.3-73.4 34.4-95.5 58.2-21.2 22.8-31.9 47.8-31.9 74.4 0 40 28.6 78.5 80.4 108.4 55.3 31.9 129.3 49.4 208.3 49.4s153-17.5 208.3-49.4c51.9-29.9 80.4-68.3 80.4-108.4 0-58.2-56.9-111.4-148.5-138.7l11.4-38.3c52 15.5 95.8 39.4 126.7 69 32.9 31.6 50.4 69 50.4 108 0 28.4-9.5 55.6-28.1 81-17.2 23.4-41.5 44.3-72.3 62-61.4 35.3-142.5 54.7-228.4 54.7z" fill="#1296db" p-id="2458"></path></svg>