<?xml version="1.0" standalone="no"?><!DOCTYPE svg PUBLIC "-//W3C//DTD SVG 1.1//EN" "http://www.w3.org/Graphics/SVG/1.1/DTD/svg11.dtd"><svg t="1607075163852" class="icon" viewBox="0 0 1024 1024" version="1.1" xmlns="http://www.w3.org/2000/svg" p-id="3749" width="70" height="70" xmlns:xlink="http://www.w3.org/1999/xlink"><defs><style type="text/css"></style></defs><path d="M718.625 889.34375h-406.875c-64.59375 0-117.1875-52.59375-117.1875-117.1875v-528.75c0-64.59375 52.59375-117.1875 117.1875-117.1875h406.96875c64.59375 0 117.1875 52.59375 117.1875 117.1875v528.84375c-0.09375 64.5-52.6875 117.09375-117.28125 117.09375z m-406.875-716.25c-38.71875 0-70.3125 31.5-70.3125 70.3125v528.84375c0 38.71875 31.5 70.3125 70.3125 70.3125h406.96875c38.71875 0 70.3125-31.5 70.3125-70.3125V243.40625c0-38.71875-31.5-70.3125-70.3125-70.3125H311.75z" fill="#ffffff" p-id="3750"></path><path d="M717.03125 347.5625H325.25c-10.3125 0-18.75-8.4375-18.75-18.75s8.4375-18.75 18.75-18.75h391.78125c10.3125 0 18.75 8.4375 18.75 18.75s-8.34375 18.75-18.75 18.75z m-92.34375 75.1875H325.25c-10.3125 0-18.75-8.4375-18.75-18.75s8.4375-18.75 18.75-18.75h299.34375c10.3125 0 18.75 8.4375 18.75 18.75s-8.34375 18.75-18.65625 18.75z m-92.4375 75.28125H325.25c-10.3125 0-18.75-8.4375-18.75-18.75s8.4375-18.75 18.75-18.75h207c10.3125 0 18.75 8.4375 18.75 18.75s-8.34375 18.75-18.75 18.75z m-43.40625 269.71875c-9.65625 0-19.125-3.65625-26.25-10.59375-9.375-9-13.59375-22.03125-11.0625-34.78125l7.96875-40.96875c1.40625-7.21875 4.78125-13.78125 9.84375-19.125l179.0625-187.3125c7.03125-7.40625 16.5-11.53125 26.71875-11.8125 10.21875-0.1875 19.875 3.5625 27.1875 10.59375l32.71875 31.21875c7.40625 7.03125 11.53125 16.5 11.8125 26.71875s-3.5625 19.875-10.59375 27.1875l-179.0625 187.3125c-5.0625 5.34375-11.53125 9-18.65625 10.6875L497.9375 766.625c-3.09375 0.84375-6.09375 1.125-9.09375 1.125z m187.03125-267.09375c-0.28125 0-0.375 0.09375-0.46875 0.1875l-179.0625 187.3125c-0.09375 0.09375-0.09375 0.1875-0.1875 0.28125l-7.96875 40.96875c0 0.1875-0.09375 0.375 0.1875 0.5625 0.28125 0.28125 0.375 0.1875 0.5625 0.1875l40.59375-9.75c0.09375 0 0.1875-0.09375 0.28125-0.1875l179.0625-187.3125c0.28125-0.28125 0.1875-0.65625 0-0.84375l-32.71875-31.21875c0.09375 0 0-0.1875-0.28125-0.1875z" fill="#ffffff" p-id="3751"></path></svg>